PathFileType	4	(X/Y/Z)	 subject01_standing_10_70.trc
DataRate	CameraRate	NumFrames	NumMarkers	Units	OrigDataRate	OrigDataStartFrame	OrigNumFrames
2000	100	6	49	mm	2000	751	1000
Frame#	Time	s2			lmt5			lcal			ltoe			llmal			lsh1			lsh2			lsh3			lsh4			llfc			lth1			lth2			lth3			lth4			lgt			lic			lasi			lpsi			rpsi			ric			rasi			rgt			rth1			rth2			rth3			rth4			rlfc			rsh1			rsh2			rsh4			rlmal			rcal			rmt5			rtoe			jug			c7			lacr			lua			llel			lfa			ldr			racr			rua			rlel			rfa			rdr			B3			B2			B1			
		X1	Y1	Z1	X2	Y2	Z2	X3	Y3	Z3	X4	Y4	Z4	X5	Y5	Z5	X6	Y6	Z6	X7	Y7	Z7	X8	Y8	Z8	X9	Y9	Z9	X10	Y10	Z10	X11	Y11	Z11	X12	Y12	Z12	X13	Y13	Z13	X14	Y14	Z14	X15	Y15	Z15	X16	Y16	Z16	X17	Y17	Z17	X18	Y18	Z18	X19	Y19	Z19	X20	Y20	Z20	X21	Y21	Z21	X22	Y22	Z22	X23	Y23	Z23	X24	Y24	Z24	X25	Y25	Z25	X26	Y26	Z26	X27	Y27	Z27	X28	Y28	Z28	X29	Y29	Z29	X30	Y30	Z30	X31	Y31	Z31	X32	Y32	Z32	X33	Y33	Z33	X34	Y34	Z34	X35	Y35	Z35	X36	Y36	Z36	X37	Y37	Z37	X38	Y38	Z38	X39	Y39	Z39	X40	Y40	Z40	X41	Y41	Z41	X42	Y42	Z42	X43	Y43	Z43	X44	Y44	Z44	X45	Y45	Z45	X46	Y46	Z46	X47	Y47	Z47	X48	Y48	Z48	X49	Y49	Z49	
751	7.5100	312.704956	1203.594849	-201.804962	304.941284	126.187080	-405.548859	157.216675	255.156891	-333.164948	405.641022	84.362663	-336.180695	227.570953	240.314041	-380.750397	346.781342	535.334045	-394.060150	329.416992	450.254028	-387.101074	270.202820	379.794067	-381.883942	361.169159	435.765106	-366.617065	408.506989	640.878784	-374.691162	397.343781	944.079468	-394.876343	418.859314	859.295593	-393.436218	398.634888	771.553589	-384.201965	456.596008	859.708374	-385.480743	385.302277	1076.600830	-380.479980	416.679901	1160.852905	-367.912323	502.292480	1134.851685	-314.513000	338.170959	1227.427490	-255.379364	340.642639	1240.673706	-154.324661	437.273895	1195.910767	-42.124653	499.671692	1152.475098	-97.880928	413.541412	1100.083862	-17.023146	528.447815	984.208618	-21.160648	605.660828	939.046326	-29.210325	653.079102	865.273071	-39.762470	630.061096	965.070923	-45.640083	702.337097	776.480042	-59.556896	611.717224	720.736877	-44.975174	538.455078	669.819092	-58.867027	549.801208	646.303467	-89.479614	330.256226	602.028015	-62.459663	261.290588	642.299072	-109.224075	339.106628	473.161926	-29.931086	416.582306	387.193787	-90.228058	823.079407	1327.014648	-194.763123	846.572327	1476.453125	-187.196808	878.580872	1477.006714	-307.983551	813.725586	1339.373657	-410.833893	749.204651	1193.932373	-455.746155	805.221924	1071.268311	-420.495514	824.928528	948.822632	-392.219360	849.372864	1456.881958	-50.738235	754.763977	1319.827515	28.255804	681.413757	1167.411743	36.669598	770.827454	1058.833496	10.847073	819.366333	951.431763	-30.801682	25.818121	23.001896	45.896271	19.549774	30.754322	-474.343933	-194.865021	887.516052	-210.855560	
752	7.5200	313.102966	1205.828735	-201.755859	292.939697	127.133408	-405.430603	147.829056	258.783112	-333.063751	393.033569	83.511406	-336.238525	217.686508	242.770767	-380.688751	338.548981	537.128052	-393.942596	320.732117	452.053009	-387.039490	261.026184	381.801941	-381.763458	352.339966	437.403625	-366.609497	401.291077	642.082520	-374.462677	394.444977	945.205872	-394.746857	414.733185	860.112732	-393.397980	392.802551	772.581116	-384.039246	452.514648	859.917297	-385.589203	384.208710	1077.719849	-380.252594	416.463348	1161.794312	-368.150513	502.213623	1135.741089	-314.802917	338.704407	1229.188599	-255.704315	341.282898	1243.020874	-154.558655	438.484589	1198.873413	-42.593170	500.088226	1154.633423	-98.849915	414.718964	1103.702637	-16.958607	529.992065	987.853821	-21.635780	607.632507	943.458923	-29.963655	655.801147	870.231323	-40.795269	631.693237	969.766663	-46.425480	705.432312	782.086914	-60.857998	615.574158	726.018433	-46.233528	543.121094	673.604248	-59.619587	555.118103	649.967651	-89.862686	336.440796	601.552917	-62.875145	265.656342	639.159729	-109.293335	350.376251	473.343903	-29.867617	431.194489	390.602264	-90.530647	823.483032	1327.987915	-194.115356	846.687683	1477.389160	-186.726562	878.995361	1477.583984	-307.758148	814.361572	1339.812500	-410.522552	750.048401	1194.142334	-455.034332	805.817505	1071.287842	-420.182861	825.213989	948.756775	-392.237122	849.471863	1457.473877	-49.601463	754.734314	1320.100586	28.545599	681.432434	1167.614014	36.220863	770.828918	1058.981079	10.694209	819.352112	951.540955	-30.839329	25.832172	23.017357	45.901489	19.543900	30.770399	-474.302307	-194.878906	887.545532	-210.835266	
753	7.5300	313.468445	1208.378906	-201.765701	280.961456	128.864441	-405.392822	138.427185	263.503021	-332.923248	380.169891	83.416824	-336.213806	207.869400	246.120346	-380.791016	331.050171	539.344299	-393.827423	312.451874	454.292816	-386.873779	252.271423	384.770599	-381.670837	344.169495	439.531860	-366.667725	394.779419	643.809143	-374.311096	392.055603	946.885498	-394.805023	410.843262	861.452087	-393.291656	387.770996	774.220337	-383.518677	448.644318	860.547791	-385.644440	383.301483	1079.263550	-380.005890	416.295380	1162.885742	-368.225189	502.092896	1136.963013	-314.872406	339.147614	1231.260742	-255.926254	341.735931	1245.619629	-154.719879	439.427063	1202.061646	-42.964634	500.315125	1157.064697	-99.457443	415.549133	1107.451416	-16.797451	531.107422	991.509277	-22.071533	609.088562	948.100159	-30.419333	657.956604	875.082092	-41.665436	632.955139	974.353271	-47.379635	708.073059	787.722107	-62.182030	619.217407	730.853333	-47.474850	547.918884	676.741943	-60.495579	560.403748	652.922302	-90.419060	342.807037	599.865784	-63.351089	270.436401	634.899109	-109.462036	361.680267	472.639435	-29.984243	445.466003	393.048035	-90.693634	823.915039	1328.862061	-194.044708	847.048279	1478.371460	-186.176376	879.530029	1478.137329	-307.720978	815.098694	1340.210571	-410.220123	750.888428	1194.318848	-454.286011	806.489319	1071.292847	-419.671051	825.611877	948.582642	-392.399353	849.858765	1458.095215	-48.651291	754.973938	1320.488037	28.761292	681.675659	1167.977783	35.753819	770.971191	1059.195312	10.544600	819.396118	951.600830	-30.956633	25.814449	23.020002	45.906059	19.544220	30.802879	-474.337952	-194.874359	887.551758	-210.775146	
754	7.5400	313.700989	1211.234985	-201.792526	269.182465	131.668503	-405.318848	129.158844	268.809875	-332.709534	367.605042	84.554169	-336.373016	198.138016	250.170761	-380.706390	324.420807	542.252258	-393.728577	304.990021	457.393005	-386.843414	244.016861	388.418518	-381.493835	336.455750	442.141296	-366.549744	389.239044	645.737183	-374.126251	389.654846	948.701904	-394.321350	407.373505	863.002075	-393.227692	383.274780	776.002869	-383.050018	445.343628	861.689209	-385.729767	382.451599	1081.093506	-379.655609	416.210968	1164.337402	-368.351013	501.947418	1138.446533	-314.605988	339.489349	1233.616821	-256.110535	342.137939	1248.683105	-154.914215	440.152466	1205.502441	-43.192188	500.349243	1159.808960	-99.828880	416.225586	1111.279053	-16.228708	531.842285	995.186096	-22.423105	610.235535	952.411743	-30.858131	659.550659	879.897156	-42.373020	633.759888	979.012878	-47.900139	710.455750	793.297485	-63.612232	622.668152	734.952026	-48.750217	552.579407	679.075073	-61.217487	565.665955	655.474182	-90.897400	349.426300	597.156738	-63.755299	275.587158	629.543640	-109.616821	372.748993	470.784485	-30.057673	459.393402	394.232086	-90.771156	824.631775	1329.864990	-193.509567	847.620178	1479.393799	-185.860077	880.240723	1478.824097	-307.766571	815.916321	1340.470337	-409.808258	751.821716	1194.539673	-453.509399	807.214417	1071.237793	-419.146057	825.915283	948.429565	-392.403351	850.565613	1458.767456	-47.746078	755.531311	1320.960205	28.935055	682.170959	1168.415039	35.302830	771.419739	1059.494263	10.765768	819.467102	951.733093	-31.064739	25.828211	23.057949	45.913326	19.546741	30.826355	-474.336578	-194.857788	887.593384	-210.795639	
755	7.5500	313.765930	1214.404297	-201.604996	257.628052	135.191147	-405.178558	120.182465	275.080261	-332.651154	355.315155	86.505363	-336.349335	188.718140	255.026627	-380.609375	318.683258	545.458618	-393.712799	298.095642	460.873901	-386.762299	236.273911	392.663727	-381.410858	329.591492	445.229187	-366.645752	384.459808	648.030090	-373.596527	387.651825	950.865845	-393.708130	404.518311	864.955444	-393.055267	379.531006	778.347656	-382.562134	442.475037	863.281067	-385.735077	381.728455	1083.252930	-379.285583	416.086578	1166.316895	-368.343353	501.699036	1140.132935	-314.120331	339.699402	1236.283447	-256.149170	342.385986	1251.828491	-154.899796	440.536499	1209.127563	-43.273758	500.254730	1162.627808	-100.058388	416.598053	1115.001343	-15.811321	532.357788	998.922058	-22.685404	611.025879	956.735107	-31.429823	660.783264	884.703491	-43.149025	634.303711	983.638855	-48.437466	712.415039	798.642639	-65.089607	625.987915	738.170898	-49.899338	557.377197	680.720947	-61.947876	570.861572	657.155640	-91.539093	356.190338	593.259521	-64.100700	281.163391	623.280945	-109.722099	383.624390	467.996277	-30.011190	472.789429	394.339447	-90.934036	825.438232	1330.925171	-193.019653	848.313843	1480.333984	-185.566391	880.985535	1479.260986	-307.864807	816.896423	1340.648804	-409.512573	753.190247	1194.890625	-453.413696	807.824219	1071.108276	-418.637146	826.200134	948.281616	-392.497314	851.379272	1459.324463	-47.002373	756.305603	1321.441772	29.080633	682.824585	1168.951782	34.949535	771.904358	1059.799316	10.508027	819.576416	951.883728	-31.200918	25.841839	23.054291	45.906219	19.543594	30.840225	-474.323456	-194.852676	887.620850	-210.792862	
756	7.5600	313.667389	1217.511597	-201.381897	246.329834	139.729950	-405.166351	111.595253	281.897949	-332.387787	343.230499	89.116386	-336.373871	179.623077	260.903931	-380.549133	313.979706	549.026001	-393.598541	292.174805	464.935455	-386.749542	229.261673	397.730713	-381.287994	322.484406	448.896545	-366.214264	381.100616	650.749023	-373.404572	386.093506	953.202271	-392.968842	402.242523	867.321106	-392.759613	376.630432	780.781372	-382.073761	440.293793	865.360229	-385.628876	381.043640	1085.733887	-378.831757	415.925415	1168.549072	-368.174744	501.374451	1142.279297	-313.465607	339.765228	1239.428955	-256.005524	342.355438	1255.080444	-155.040512	440.610840	1212.610474	-43.250999	499.990906	1165.472412	-99.893150	416.729004	1118.766602	-15.341860	532.620972	1002.643250	-22.935284	611.454590	961.000000	-31.951187	661.776733	889.259338	-44.749641	634.536621	988.140442	-48.975628	714.026855	803.435730	-66.654015	629.078674	740.699707	-50.998158	561.839050	681.419067	-62.625973	575.927246	658.132446	-92.245750	363.015717	588.425354	-64.137993	287.068512	616.258179	-109.585037	394.300934	463.953094	-30.211502	485.670990	393.359802	-91.155609	826.237488	1331.948608	-192.552734	849.089294	1481.268066	-185.405792	881.812500	1479.657715	-307.976501	817.949951	1340.734985	-409.104736	754.253845	1195.024780	-452.703430	808.547058	1071.013794	-418.206604	826.416138	948.116333	-392.624084	852.494873	1459.961060	-46.367920	757.283508	1321.947144	29.208500	683.696289	1169.520020	34.664486	772.453003	1060.104126	10.232992	819.617188	951.990723	-31.449978	25.827564	23.076763	45.887371	19.557091	30.860466	-474.328949	-194.771683	887.574402	-210.821777	
